# xmcd CD database file
#
# Track frame offsets:
#	150
#	12022
#	25190
#	38812
#	52687
#	65797
#	79590
#	95302
#	109895
#	125332
#	147125
#	158892
#	171275
#	182475
#	196830
#	208500
#	228900
#	240950
#	263272
#	279172
#
# Disc length: 3907 seconds
#
# Revision: 6
# Processed by: cddbd v1.5.2PL0 Copyright (c) Steve Scherf et al.
# Submitted via: CDex 1.51
#
DISCID=f10f4114
DTITLE=Various Artist - Living the Blues - Guitar Classics (Time-Life)
DYEAR=1998
DGENRE=Blues
TTITLE0=Little Junior's Blue Flames feat. Floyd Murphy - Love My Baby
TTITLE1=Billy Gayles with Ike Turner's Kings of Rhythm - Just One More Time
TTITLE2=Guitar Slim - The Story Of My Life
TTITLE3=Robert Nighthawk - Sweet Black Angel (Black Angel Blues)
TTITLE4=T-Bone Walker - Mean Old World
TTITLE5=Lightnin' Hopkins - Mojo Hand
TTITLE6=Johnny "Guitar" Watson - Three Hours Past Midnight
TTITLE7=Freddy King - The Stumble
TTITLE8=Magic Sam - Easy Baby
TTITLE9=B. B. King - Night Life
TTITLE10=Bobby Bland - You Did Me Wrong
TTITLE11=Clarence "Gatemouth" Brown - Gate's Salty Blues
TTITLE12=Robert Jr. Lockwood - Glory For Man
TTITLE13=Muddy Waters - I Feel Like Going Home
TTITLE14=Earl Hooker - The Leading Brand
TTITLE15=Buddy Guy - She's Out There Somewhere
TTITLE16=Albert Collins - Avalanche
TTITLE17=Albert Collins , Robert Cray, and Johnny Copeland - T-Bone Shuffle
TTITLE18=The Robert Cray Band/ Phone Booth
TTITLE19=Joe Louis Walker - I'll Get to Heaven On My Own
EXTD=YEAR: 1998
EXTT0=
EXTT1=
EXTT2=
EXTT3=
EXTT4=
EXTT5=
EXTT6=
EXTT7=
EXTT8=
EXTT9=
EXTT10=
EXTT11=
EXTT12=
EXTT13=
EXTT14=
EXTT15=
EXTT16=
EXTT17=
EXTT18=
EXTT19=
PLAYORDER=
